<?xml version="1.0" encoding="UTF-8" standalone="no"?>
<!DOCTYPE svg PUBLIC "-//W3C//DTD SVG 1.1//EN" "http://www.w3.org/Graphics/SVG/1.1/DTD/svg11.dtd">
<svg xmlns:dc="http://purl.org/dc/elements/1.1/" version="1.1" xmlns="http://www.w3.org/2000/svg" xmlns:xl="http://www.w3.org/1999/xlink" viewBox="19353 7483 2547.3397 1921" width="2547.3397" height="1921">
  <defs/>
  <g id="High-Impact" stroke-dasharray="none" fill="none" fill-opacity="1" stroke-opacity="1" stroke="none">
    <title>High-Impact</title>
    <g id="High-Impact_Layer_1">
      <title>Layer 1</title>
      <g id="Graphic_113">
        <path d="M 19867.575 8005.563 L 19353 8302.653 L 19913.634 9273.7 L 20428.21 8976.61 L 20674.963 9404 L 21900.34 7483 L 19624.017 7583.707 Z M 20679.403 8534.046 L 20756.135 8666.951 L 19758.93 8711.069 L 20295.74 7869.5215 L 20372.472 8002.426 L 20014.598 8563.458 Z M 21587.57 7911.736 L 21588.643 7910.056 L 21589.562 7911.648 Z M 20454.658 8079.753 L 20620.86 8072.4 L 20369.768 8466.031 L 20207.794 8473.197 L 20205.842 8469.817 Z M 21378.474 7784.736 L 21417.765 7782.998 L 21417.737 7782.95 L 21510.838 7778.831 L 21421.37 7919.089 L 21289.038 7924.943 L 20841.976 8625.793 L 20765.244 8492.889 L 21122.837 7932.296 L 20592.355 7955.765 L 20592.636 7955.326 L 20458.313 7961.269 L 20381.58 7828.364 L 21378.786 7784.246 Z M 20705.017 8068.156 L 20705.858 8066.838 L 20937.1 8056.607 L 20847.663 8196.815 L 20781.061 8199.761 L 20762.82 8228.356 L 20833.372 8225.234 L 20743.936 8365.441 L 20673.385 8368.563 L 20618.565 8454.503 L 20456.592 8461.669 L 20454.64 8458.288 L 20703.455 8068.225 Z" fill="#ff4500"/>
      </g>
    </g>
  </g>
</svg>
